<mxfile host="Electron" agent="Mozilla/5.0 (Windows NT 10.0; Win64; x64) AppleWebKit/537.36 (KHTML, like Gecko) draw.io/24.7.17 Chrome/128.0.6613.36 Electron/32.0.1 Safari/537.36" version="24.7.17">
  <diagram name="Page-1" id="eODsZHfyAk8XZdAAYMWP">
    <mxGraphModel dx="3402" dy="1286" grid="1" gridSize="10" guides="1" tooltips="1" connect="1" arrows="1" fold="1" page="1" pageScale="1" pageWidth="827" pageHeight="1169" math="0" shadow="0">
      <root>
        <mxCell id="0" />
        <mxCell id="1" parent="0" />
        <mxCell id="meK3nM89204dYSEs8Aw3-12" style="edgeStyle=orthogonalEdgeStyle;rounded=0;orthogonalLoop=1;jettySize=auto;html=1;exitX=0.5;exitY=1;exitDx=0;exitDy=0;entryX=0.5;entryY=0;entryDx=0;entryDy=0;" parent="1" source="meK3nM89204dYSEs8Aw3-1" target="meK3nM89204dYSEs8Aw3-4" edge="1">
          <mxGeometry relative="1" as="geometry" />
        </mxCell>
        <mxCell id="meK3nM89204dYSEs8Aw3-1" value="&lt;div&gt;checkpoin&lt;span style=&quot;background-color: initial;&quot;&gt;t&lt;/span&gt;&lt;/div&gt;" style="ellipse;whiteSpace=wrap;html=1;" parent="1" vertex="1">
          <mxGeometry x="250" y="210" width="80" height="50" as="geometry" />
        </mxCell>
        <mxCell id="meK3nM89204dYSEs8Aw3-14" style="edgeStyle=orthogonalEdgeStyle;rounded=0;orthogonalLoop=1;jettySize=auto;html=1;exitX=0.5;exitY=1;exitDx=0;exitDy=0;entryX=0.5;entryY=0;entryDx=0;entryDy=0;" parent="1" source="meK3nM89204dYSEs8Aw3-2" target="meK3nM89204dYSEs8Aw3-6" edge="1">
          <mxGeometry relative="1" as="geometry" />
        </mxCell>
        <mxCell id="meK3nM89204dYSEs8Aw3-2" value="donekonečna&lt;div&gt;ale pomaleji&lt;/div&gt;" style="rhombus;whiteSpace=wrap;html=1;" parent="1" vertex="1">
          <mxGeometry x="240" y="350" width="100" height="100" as="geometry" />
        </mxCell>
        <mxCell id="meK3nM89204dYSEs8Aw3-13" style="edgeStyle=orthogonalEdgeStyle;rounded=0;orthogonalLoop=1;jettySize=auto;html=1;exitX=0.5;exitY=1;exitDx=0;exitDy=0;entryX=0.5;entryY=0;entryDx=0;entryDy=0;" parent="1" source="meK3nM89204dYSEs8Aw3-4" target="meK3nM89204dYSEs8Aw3-2" edge="1">
          <mxGeometry relative="1" as="geometry" />
        </mxCell>
        <mxCell id="meK3nM89204dYSEs8Aw3-4" value="nastav BLE beacon" style="rounded=0;whiteSpace=wrap;html=1;" parent="1" vertex="1">
          <mxGeometry x="230" y="290" width="120" height="40" as="geometry" />
        </mxCell>
        <mxCell id="meK3nM89204dYSEs8Aw3-15" style="edgeStyle=orthogonalEdgeStyle;rounded=0;orthogonalLoop=1;jettySize=auto;html=1;exitX=0.5;exitY=1;exitDx=0;exitDy=0;entryX=0.5;entryY=0;entryDx=0;entryDy=0;" parent="1" source="meK3nM89204dYSEs8Aw3-6" target="meK3nM89204dYSEs8Aw3-7" edge="1">
          <mxGeometry relative="1" as="geometry" />
        </mxCell>
        <mxCell id="meK3nM89204dYSEs8Aw3-6" value="zapni BLE beacon" style="shape=parallelogram;perimeter=parallelogramPerimeter;whiteSpace=wrap;html=1;fixedSize=1;" parent="1" vertex="1">
          <mxGeometry x="230" y="480" width="120" height="40" as="geometry" />
        </mxCell>
        <mxCell id="b0Otqnt1lSSFzkmwzTOg-22" style="edgeStyle=orthogonalEdgeStyle;rounded=0;orthogonalLoop=1;jettySize=auto;html=1;exitX=0.5;exitY=1;exitDx=0;exitDy=0;entryX=0.5;entryY=0;entryDx=0;entryDy=0;" edge="1" parent="1" source="meK3nM89204dYSEs8Aw3-7" target="b0Otqnt1lSSFzkmwzTOg-21">
          <mxGeometry relative="1" as="geometry" />
        </mxCell>
        <mxCell id="meK3nM89204dYSEs8Aw3-7" value="vyšli svoje ID" style="shape=parallelogram;perimeter=parallelogramPerimeter;whiteSpace=wrap;html=1;fixedSize=1;" parent="1" vertex="1">
          <mxGeometry x="230" y="544.5" width="120" height="40" as="geometry" />
        </mxCell>
        <mxCell id="meK3nM89204dYSEs8Aw3-11" value="doba např 5s +-1s (náhodně)" style="text;html=1;align=center;verticalAlign=middle;whiteSpace=wrap;rounded=0;" parent="1" vertex="1">
          <mxGeometry x="200" y="680" width="100" height="30" as="geometry" />
        </mxCell>
        <mxCell id="b0Otqnt1lSSFzkmwzTOg-1" style="edgeStyle=orthogonalEdgeStyle;rounded=0;orthogonalLoop=1;jettySize=auto;html=1;exitX=0.5;exitY=1;exitDx=0;exitDy=0;entryX=0.5;entryY=0;entryDx=0;entryDy=0;" edge="1" parent="1" source="b0Otqnt1lSSFzkmwzTOg-2" target="b0Otqnt1lSSFzkmwzTOg-6">
          <mxGeometry relative="1" as="geometry" />
        </mxCell>
        <mxCell id="b0Otqnt1lSSFzkmwzTOg-2" value="&lt;div&gt;konec&lt;/div&gt;" style="ellipse;whiteSpace=wrap;html=1;" vertex="1" parent="1">
          <mxGeometry x="520" y="210" width="80" height="50" as="geometry" />
        </mxCell>
        <mxCell id="b0Otqnt1lSSFzkmwzTOg-3" style="edgeStyle=orthogonalEdgeStyle;rounded=0;orthogonalLoop=1;jettySize=auto;html=1;exitX=0.5;exitY=1;exitDx=0;exitDy=0;entryX=0.5;entryY=0;entryDx=0;entryDy=0;" edge="1" parent="1" source="b0Otqnt1lSSFzkmwzTOg-4" target="b0Otqnt1lSSFzkmwzTOg-8">
          <mxGeometry relative="1" as="geometry" />
        </mxCell>
        <mxCell id="b0Otqnt1lSSFzkmwzTOg-4" value="donekonečna" style="rhombus;whiteSpace=wrap;html=1;" vertex="1" parent="1">
          <mxGeometry x="510" y="350" width="100" height="100" as="geometry" />
        </mxCell>
        <mxCell id="b0Otqnt1lSSFzkmwzTOg-5" style="edgeStyle=orthogonalEdgeStyle;rounded=0;orthogonalLoop=1;jettySize=auto;html=1;exitX=0.5;exitY=1;exitDx=0;exitDy=0;entryX=0.5;entryY=0;entryDx=0;entryDy=0;" edge="1" parent="1" source="b0Otqnt1lSSFzkmwzTOg-6" target="b0Otqnt1lSSFzkmwzTOg-4">
          <mxGeometry relative="1" as="geometry" />
        </mxCell>
        <mxCell id="b0Otqnt1lSSFzkmwzTOg-6" value="nastav BLE" style="rounded=0;whiteSpace=wrap;html=1;" vertex="1" parent="1">
          <mxGeometry x="500" y="290" width="120" height="40" as="geometry" />
        </mxCell>
        <mxCell id="b0Otqnt1lSSFzkmwzTOg-17" style="edgeStyle=orthogonalEdgeStyle;rounded=0;orthogonalLoop=1;jettySize=auto;html=1;exitX=0.5;exitY=1;exitDx=0;exitDy=0;entryX=0.5;entryY=0;entryDx=0;entryDy=0;" edge="1" parent="1" source="b0Otqnt1lSSFzkmwzTOg-8" target="b0Otqnt1lSSFzkmwzTOg-16">
          <mxGeometry relative="1" as="geometry" />
        </mxCell>
        <mxCell id="b0Otqnt1lSSFzkmwzTOg-8" value="zapni BLE" style="shape=parallelogram;perimeter=parallelogramPerimeter;whiteSpace=wrap;html=1;fixedSize=1;" vertex="1" parent="1">
          <mxGeometry x="500" y="480" width="120" height="40" as="geometry" />
        </mxCell>
        <mxCell id="b0Otqnt1lSSFzkmwzTOg-25" style="edgeStyle=orthogonalEdgeStyle;rounded=0;orthogonalLoop=1;jettySize=auto;html=1;exitX=0.5;exitY=1;exitDx=0;exitDy=0;entryX=0.5;entryY=0;entryDx=0;entryDy=0;" edge="1" parent="1" source="b0Otqnt1lSSFzkmwzTOg-10" target="b0Otqnt1lSSFzkmwzTOg-24">
          <mxGeometry relative="1" as="geometry" />
        </mxCell>
        <mxCell id="b0Otqnt1lSSFzkmwzTOg-10" value="vyšli párovací&lt;div&gt;signál&lt;/div&gt;" style="shape=parallelogram;perimeter=parallelogramPerimeter;whiteSpace=wrap;html=1;fixedSize=1;" vertex="1" parent="1">
          <mxGeometry x="500" y="650" width="120" height="40" as="geometry" />
        </mxCell>
        <mxCell id="b0Otqnt1lSSFzkmwzTOg-13" value="doba např 5s +-1s (náhodně)" style="text;html=1;align=center;verticalAlign=middle;whiteSpace=wrap;rounded=0;" vertex="1" parent="1">
          <mxGeometry x="450" y="775" width="100" height="30" as="geometry" />
        </mxCell>
        <mxCell id="b0Otqnt1lSSFzkmwzTOg-36" style="edgeStyle=orthogonalEdgeStyle;rounded=0;orthogonalLoop=1;jettySize=auto;html=1;exitX=0.5;exitY=1;exitDx=0;exitDy=0;entryX=0.5;entryY=0;entryDx=0;entryDy=0;" edge="1" parent="1" source="b0Otqnt1lSSFzkmwzTOg-14" target="b0Otqnt1lSSFzkmwzTOg-27">
          <mxGeometry relative="1" as="geometry" />
        </mxCell>
        <mxCell id="b0Otqnt1lSSFzkmwzTOg-14" value="vyzvi klienta&amp;nbsp;&lt;div&gt;k poslání dat&lt;/div&gt;" style="shape=parallelogram;perimeter=parallelogramPerimeter;whiteSpace=wrap;html=1;fixedSize=1;" vertex="1" parent="1">
          <mxGeometry x="640" y="610" width="120" height="40" as="geometry" />
        </mxCell>
        <mxCell id="b0Otqnt1lSSFzkmwzTOg-18" style="edgeStyle=orthogonalEdgeStyle;rounded=0;orthogonalLoop=1;jettySize=auto;html=1;exitX=0.5;exitY=1;exitDx=0;exitDy=0;strokeColor=#FF0000;" edge="1" parent="1" source="b0Otqnt1lSSFzkmwzTOg-16" target="b0Otqnt1lSSFzkmwzTOg-10">
          <mxGeometry relative="1" as="geometry" />
        </mxCell>
        <mxCell id="b0Otqnt1lSSFzkmwzTOg-35" style="edgeStyle=orthogonalEdgeStyle;rounded=0;orthogonalLoop=1;jettySize=auto;html=1;exitX=1;exitY=0.5;exitDx=0;exitDy=0;entryX=0.5;entryY=0;entryDx=0;entryDy=0;fillColor=#00FF00;strokeColor=#00FF00;" edge="1" parent="1" source="b0Otqnt1lSSFzkmwzTOg-16" target="b0Otqnt1lSSFzkmwzTOg-14">
          <mxGeometry relative="1" as="geometry" />
        </mxCell>
        <mxCell id="b0Otqnt1lSSFzkmwzTOg-16" value="&lt;div&gt;jsi&lt;/div&gt;připojený" style="rhombus;whiteSpace=wrap;html=1;" vertex="1" parent="1">
          <mxGeometry x="520" y="550" width="80" height="80" as="geometry" />
        </mxCell>
        <mxCell id="b0Otqnt1lSSFzkmwzTOg-23" style="edgeStyle=orthogonalEdgeStyle;rounded=0;orthogonalLoop=1;jettySize=auto;html=1;exitX=0.5;exitY=1;exitDx=0;exitDy=0;entryX=0;entryY=0.5;entryDx=0;entryDy=0;" edge="1" parent="1" source="b0Otqnt1lSSFzkmwzTOg-21" target="meK3nM89204dYSEs8Aw3-2">
          <mxGeometry relative="1" as="geometry" />
        </mxCell>
        <mxCell id="b0Otqnt1lSSFzkmwzTOg-21" value="přejdi do spánku" style="rounded=0;whiteSpace=wrap;html=1;" vertex="1" parent="1">
          <mxGeometry x="230" y="610" width="120" height="40" as="geometry" />
        </mxCell>
        <mxCell id="b0Otqnt1lSSFzkmwzTOg-26" style="edgeStyle=orthogonalEdgeStyle;rounded=0;orthogonalLoop=1;jettySize=auto;html=1;exitX=0.5;exitY=1;exitDx=0;exitDy=0;entryX=0;entryY=0.5;entryDx=0;entryDy=0;" edge="1" parent="1" source="b0Otqnt1lSSFzkmwzTOg-24" target="b0Otqnt1lSSFzkmwzTOg-4">
          <mxGeometry relative="1" as="geometry" />
        </mxCell>
        <mxCell id="b0Otqnt1lSSFzkmwzTOg-24" value="přejdi do spánku" style="rounded=0;whiteSpace=wrap;html=1;" vertex="1" parent="1">
          <mxGeometry x="500" y="710" width="120" height="40" as="geometry" />
        </mxCell>
        <mxCell id="b0Otqnt1lSSFzkmwzTOg-38" style="edgeStyle=orthogonalEdgeStyle;rounded=0;orthogonalLoop=1;jettySize=auto;html=1;exitX=1;exitY=0.5;exitDx=0;exitDy=0;entryX=0.5;entryY=0;entryDx=0;entryDy=0;strokeColor=#33FF33;" edge="1" parent="1" source="b0Otqnt1lSSFzkmwzTOg-27" target="b0Otqnt1lSSFzkmwzTOg-28">
          <mxGeometry relative="1" as="geometry" />
        </mxCell>
        <mxCell id="b0Otqnt1lSSFzkmwzTOg-42" style="edgeStyle=orthogonalEdgeStyle;rounded=0;orthogonalLoop=1;jettySize=auto;html=1;exitX=0.5;exitY=1;exitDx=0;exitDy=0;entryX=0.5;entryY=0;entryDx=0;entryDy=0;strokeColor=#FF0000;" edge="1" parent="1" source="b0Otqnt1lSSFzkmwzTOg-27" target="b0Otqnt1lSSFzkmwzTOg-33">
          <mxGeometry relative="1" as="geometry">
            <Array as="points">
              <mxPoint x="700" y="760" />
              <mxPoint x="680" y="760" />
            </Array>
          </mxGeometry>
        </mxCell>
        <mxCell id="b0Otqnt1lSSFzkmwzTOg-27" value="data jsou v pořádku" style="rhombus;whiteSpace=wrap;html=1;" vertex="1" parent="1">
          <mxGeometry x="660" y="670" width="80" height="80" as="geometry" />
        </mxCell>
        <mxCell id="b0Otqnt1lSSFzkmwzTOg-39" style="edgeStyle=orthogonalEdgeStyle;rounded=0;orthogonalLoop=1;jettySize=auto;html=1;exitX=0.5;exitY=1;exitDx=0;exitDy=0;entryX=0.5;entryY=0;entryDx=0;entryDy=0;" edge="1" parent="1" source="b0Otqnt1lSSFzkmwzTOg-28" target="b0Otqnt1lSSFzkmwzTOg-30">
          <mxGeometry relative="1" as="geometry" />
        </mxCell>
        <mxCell id="b0Otqnt1lSSFzkmwzTOg-28" value="otevři dvířka" style="rounded=0;whiteSpace=wrap;html=1;" vertex="1" parent="1">
          <mxGeometry x="760" y="740" width="90" height="40" as="geometry" />
        </mxCell>
        <mxCell id="b0Otqnt1lSSFzkmwzTOg-40" style="edgeStyle=orthogonalEdgeStyle;rounded=0;orthogonalLoop=1;jettySize=auto;html=1;exitX=0.5;exitY=1;exitDx=0;exitDy=0;entryX=0.5;entryY=0;entryDx=0;entryDy=0;" edge="1" parent="1" source="b0Otqnt1lSSFzkmwzTOg-30" target="b0Otqnt1lSSFzkmwzTOg-31">
          <mxGeometry relative="1" as="geometry" />
        </mxCell>
        <mxCell id="b0Otqnt1lSSFzkmwzTOg-30" value="odpoj se od klienta" style="shape=parallelogram;perimeter=parallelogramPerimeter;whiteSpace=wrap;html=1;fixedSize=1;" vertex="1" parent="1">
          <mxGeometry x="745" y="800" width="120" height="40" as="geometry" />
        </mxCell>
        <mxCell id="b0Otqnt1lSSFzkmwzTOg-41" style="edgeStyle=orthogonalEdgeStyle;rounded=0;orthogonalLoop=1;jettySize=auto;html=1;exitX=0.5;exitY=1;exitDx=0;exitDy=0;entryX=0;entryY=0.5;entryDx=0;entryDy=0;" edge="1" parent="1" source="b0Otqnt1lSSFzkmwzTOg-31" target="b0Otqnt1lSSFzkmwzTOg-4">
          <mxGeometry relative="1" as="geometry">
            <Array as="points">
              <mxPoint x="805" y="950" />
              <mxPoint x="560" y="950" />
              <mxPoint x="560" y="770" />
              <mxPoint x="490" y="770" />
              <mxPoint x="490" y="400" />
            </Array>
          </mxGeometry>
        </mxCell>
        <mxCell id="b0Otqnt1lSSFzkmwzTOg-31" value="přejdi do spánku" style="rounded=0;whiteSpace=wrap;html=1;" vertex="1" parent="1">
          <mxGeometry x="745" y="860" width="120" height="40" as="geometry" />
        </mxCell>
        <mxCell id="b0Otqnt1lSSFzkmwzTOg-43" style="edgeStyle=orthogonalEdgeStyle;rounded=0;orthogonalLoop=1;jettySize=auto;html=1;exitX=0.5;exitY=1;exitDx=0;exitDy=0;" edge="1" parent="1" source="b0Otqnt1lSSFzkmwzTOg-33" target="b0Otqnt1lSSFzkmwzTOg-37">
          <mxGeometry relative="1" as="geometry" />
        </mxCell>
        <mxCell id="b0Otqnt1lSSFzkmwzTOg-33" value="zašli kientovi&lt;div&gt;zprávu o chybě&lt;/div&gt;" style="shape=parallelogram;perimeter=parallelogramPerimeter;whiteSpace=wrap;html=1;fixedSize=1;" vertex="1" parent="1">
          <mxGeometry x="620" y="775" width="120" height="40" as="geometry" />
        </mxCell>
        <mxCell id="b0Otqnt1lSSFzkmwzTOg-45" style="edgeStyle=orthogonalEdgeStyle;rounded=0;orthogonalLoop=1;jettySize=auto;html=1;exitX=0.5;exitY=1;exitDx=0;exitDy=0;entryX=0;entryY=0.5;entryDx=0;entryDy=0;" edge="1" parent="1" source="b0Otqnt1lSSFzkmwzTOg-34" target="b0Otqnt1lSSFzkmwzTOg-4">
          <mxGeometry relative="1" as="geometry">
            <Array as="points">
              <mxPoint x="680" y="950" />
              <mxPoint x="560" y="950" />
              <mxPoint x="560" y="770" />
              <mxPoint x="490" y="770" />
              <mxPoint x="490" y="400" />
            </Array>
          </mxGeometry>
        </mxCell>
        <mxCell id="b0Otqnt1lSSFzkmwzTOg-34" value="přejdi do spánku" style="rounded=0;whiteSpace=wrap;html=1;" vertex="1" parent="1">
          <mxGeometry x="620" y="890" width="120" height="40" as="geometry" />
        </mxCell>
        <mxCell id="b0Otqnt1lSSFzkmwzTOg-44" style="edgeStyle=orthogonalEdgeStyle;rounded=0;orthogonalLoop=1;jettySize=auto;html=1;exitX=0.5;exitY=1;exitDx=0;exitDy=0;entryX=0.5;entryY=0;entryDx=0;entryDy=0;" edge="1" parent="1" source="b0Otqnt1lSSFzkmwzTOg-37" target="b0Otqnt1lSSFzkmwzTOg-34">
          <mxGeometry relative="1" as="geometry" />
        </mxCell>
        <mxCell id="b0Otqnt1lSSFzkmwzTOg-37" value="odpoj se od klienta" style="shape=parallelogram;perimeter=parallelogramPerimeter;whiteSpace=wrap;html=1;fixedSize=1;" vertex="1" parent="1">
          <mxGeometry x="620" y="830" width="120" height="40" as="geometry" />
        </mxCell>
        <mxCell id="b0Otqnt1lSSFzkmwzTOg-46" style="edgeStyle=orthogonalEdgeStyle;rounded=0;orthogonalLoop=1;jettySize=auto;html=1;exitX=0.5;exitY=1;exitDx=0;exitDy=0;entryX=0.5;entryY=0;entryDx=0;entryDy=0;" edge="1" parent="1" source="b0Otqnt1lSSFzkmwzTOg-47" target="b0Otqnt1lSSFzkmwzTOg-51">
          <mxGeometry relative="1" as="geometry" />
        </mxCell>
        <mxCell id="b0Otqnt1lSSFzkmwzTOg-47" value="&lt;div&gt;checkpoin&lt;span style=&quot;background-color: initial;&quot;&gt;t&lt;/span&gt;&lt;/div&gt;" style="ellipse;whiteSpace=wrap;html=1;" vertex="1" parent="1">
          <mxGeometry x="-250" y="200" width="80" height="50" as="geometry" />
        </mxCell>
        <mxCell id="b0Otqnt1lSSFzkmwzTOg-75" style="edgeStyle=orthogonalEdgeStyle;rounded=0;orthogonalLoop=1;jettySize=auto;html=1;exitX=0.5;exitY=1;exitDx=0;exitDy=0;entryX=0.5;entryY=0;entryDx=0;entryDy=0;" edge="1" parent="1" source="b0Otqnt1lSSFzkmwzTOg-49" target="b0Otqnt1lSSFzkmwzTOg-71">
          <mxGeometry relative="1" as="geometry" />
        </mxCell>
        <mxCell id="b0Otqnt1lSSFzkmwzTOg-49" value="donekonečna" style="rhombus;whiteSpace=wrap;html=1;" vertex="1" parent="1">
          <mxGeometry x="-258.5" y="330" width="100" height="100" as="geometry" />
        </mxCell>
        <mxCell id="b0Otqnt1lSSFzkmwzTOg-50" style="edgeStyle=orthogonalEdgeStyle;rounded=0;orthogonalLoop=1;jettySize=auto;html=1;exitX=0.5;exitY=1;exitDx=0;exitDy=0;entryX=0.5;entryY=0;entryDx=0;entryDy=0;" edge="1" parent="1" source="b0Otqnt1lSSFzkmwzTOg-51" target="b0Otqnt1lSSFzkmwzTOg-49">
          <mxGeometry relative="1" as="geometry" />
        </mxCell>
        <mxCell id="b0Otqnt1lSSFzkmwzTOg-51" value="nastav BLE" style="rounded=0;whiteSpace=wrap;html=1;" vertex="1" parent="1">
          <mxGeometry x="-270" y="270" width="120" height="40" as="geometry" />
        </mxCell>
        <mxCell id="b0Otqnt1lSSFzkmwzTOg-56" value="doba např 5s +-1s (náhodně)" style="text;html=1;align=center;verticalAlign=middle;whiteSpace=wrap;rounded=0;" vertex="1" parent="1">
          <mxGeometry x="-268.5" y="967.5" width="100" height="30" as="geometry" />
        </mxCell>
        <mxCell id="b0Otqnt1lSSFzkmwzTOg-99" style="edgeStyle=orthogonalEdgeStyle;rounded=0;orthogonalLoop=1;jettySize=auto;html=1;exitX=0.5;exitY=1;exitDx=0;exitDy=0;entryX=0.5;entryY=0;entryDx=0;entryDy=0;" edge="1" parent="1" source="b0Otqnt1lSSFzkmwzTOg-59" target="b0Otqnt1lSSFzkmwzTOg-60">
          <mxGeometry relative="1" as="geometry" />
        </mxCell>
        <mxCell id="b0Otqnt1lSSFzkmwzTOg-59" value="zapni GPS anténu" style="shape=parallelogram;perimeter=parallelogramPerimeter;whiteSpace=wrap;html=1;fixedSize=1;" vertex="1" parent="1">
          <mxGeometry x="30" y="592.5" width="120" height="40" as="geometry" />
        </mxCell>
        <mxCell id="b0Otqnt1lSSFzkmwzTOg-100" style="edgeStyle=orthogonalEdgeStyle;rounded=0;orthogonalLoop=1;jettySize=auto;html=1;exitX=0.5;exitY=1;exitDx=0;exitDy=0;entryX=0.5;entryY=0;entryDx=0;entryDy=0;" edge="1" parent="1" source="b0Otqnt1lSSFzkmwzTOg-60" target="b0Otqnt1lSSFzkmwzTOg-61">
          <mxGeometry relative="1" as="geometry" />
        </mxCell>
        <mxCell id="b0Otqnt1lSSFzkmwzTOg-60" value="získej GPS data" style="shape=parallelogram;perimeter=parallelogramPerimeter;whiteSpace=wrap;html=1;fixedSize=1;" vertex="1" parent="1">
          <mxGeometry x="30" y="652.5" width="120" height="40" as="geometry" />
        </mxCell>
        <mxCell id="b0Otqnt1lSSFzkmwzTOg-101" style="edgeStyle=orthogonalEdgeStyle;rounded=0;orthogonalLoop=1;jettySize=auto;html=1;exitX=0.5;exitY=1;exitDx=0;exitDy=0;" edge="1" parent="1" source="b0Otqnt1lSSFzkmwzTOg-61" target="b0Otqnt1lSSFzkmwzTOg-64">
          <mxGeometry relative="1" as="geometry" />
        </mxCell>
        <mxCell id="b0Otqnt1lSSFzkmwzTOg-61" value="vypni GPS anténu" style="shape=parallelogram;perimeter=parallelogramPerimeter;whiteSpace=wrap;html=1;fixedSize=1;" vertex="1" parent="1">
          <mxGeometry x="30" y="712.5" width="120" height="40" as="geometry" />
        </mxCell>
        <mxCell id="b0Otqnt1lSSFzkmwzTOg-78" style="edgeStyle=orthogonalEdgeStyle;rounded=0;orthogonalLoop=1;jettySize=auto;html=1;exitX=0.5;exitY=1;exitDx=0;exitDy=0;entryX=0.5;entryY=0;entryDx=0;entryDy=0;" edge="1" parent="1" source="b0Otqnt1lSSFzkmwzTOg-62" target="b0Otqnt1lSSFzkmwzTOg-72">
          <mxGeometry relative="1" as="geometry" />
        </mxCell>
        <mxCell id="b0Otqnt1lSSFzkmwzTOg-62" value="zapni BLE" style="shape=parallelogram;perimeter=parallelogramPerimeter;whiteSpace=wrap;html=1;fixedSize=1;" vertex="1" parent="1">
          <mxGeometry x="-268.5" y="787.5" width="120" height="40" as="geometry" />
        </mxCell>
        <mxCell id="b0Otqnt1lSSFzkmwzTOg-102" style="edgeStyle=orthogonalEdgeStyle;rounded=0;orthogonalLoop=1;jettySize=auto;html=1;exitX=0.5;exitY=1;exitDx=0;exitDy=0;entryX=0;entryY=0.5;entryDx=0;entryDy=0;" edge="1" parent="1" source="b0Otqnt1lSSFzkmwzTOg-64" target="b0Otqnt1lSSFzkmwzTOg-49">
          <mxGeometry relative="1" as="geometry">
            <Array as="points">
              <mxPoint x="90" y="1060" />
              <mxPoint x="-290" y="1060" />
              <mxPoint x="-290" y="380" />
            </Array>
          </mxGeometry>
        </mxCell>
        <mxCell id="b0Otqnt1lSSFzkmwzTOg-64" value="zapiš data bodu do flash uložiště" style="rounded=0;whiteSpace=wrap;html=1;" vertex="1" parent="1">
          <mxGeometry x="30" y="772.5" width="120" height="50" as="geometry" />
        </mxCell>
        <mxCell id="b0Otqnt1lSSFzkmwzTOg-98" style="edgeStyle=orthogonalEdgeStyle;rounded=0;orthogonalLoop=1;jettySize=auto;html=1;exitX=1;exitY=0.5;exitDx=0;exitDy=0;entryX=0.5;entryY=0;entryDx=0;entryDy=0;strokeColor=#00FF00;" edge="1" parent="1" source="b0Otqnt1lSSFzkmwzTOg-65" target="b0Otqnt1lSSFzkmwzTOg-59">
          <mxGeometry relative="1" as="geometry" />
        </mxCell>
        <mxCell id="b0Otqnt1lSSFzkmwzTOg-65" value="zmáčknuto tlačítko přidání bodu" style="rhombus;whiteSpace=wrap;html=1;" vertex="1" parent="1">
          <mxGeometry x="-100" y="507.5" width="100" height="95" as="geometry" />
        </mxCell>
        <mxCell id="b0Otqnt1lSSFzkmwzTOg-91" style="edgeStyle=orthogonalEdgeStyle;rounded=0;orthogonalLoop=1;jettySize=auto;html=1;exitX=0.5;exitY=1;exitDx=0;exitDy=0;entryX=0.5;entryY=0;entryDx=0;entryDy=0;strokeColor=#FF0000;" edge="1" parent="1" source="b0Otqnt1lSSFzkmwzTOg-66" target="b0Otqnt1lSSFzkmwzTOg-74">
          <mxGeometry relative="1" as="geometry" />
        </mxCell>
        <mxCell id="b0Otqnt1lSSFzkmwzTOg-92" style="edgeStyle=orthogonalEdgeStyle;rounded=0;orthogonalLoop=1;jettySize=auto;html=1;exitX=1;exitY=0.5;exitDx=0;exitDy=0;entryX=0.5;entryY=0;entryDx=0;entryDy=0;strokeColor=#00FF00;" edge="1" parent="1" source="b0Otqnt1lSSFzkmwzTOg-66" target="b0Otqnt1lSSFzkmwzTOg-67">
          <mxGeometry relative="1" as="geometry" />
        </mxCell>
        <mxCell id="b0Otqnt1lSSFzkmwzTOg-66" value="podrženo tlačítko přípravy lovu" style="rhombus;whiteSpace=wrap;html=1;" vertex="1" parent="1">
          <mxGeometry x="-260" y="550" width="100" height="95" as="geometry" />
        </mxCell>
        <mxCell id="b0Otqnt1lSSFzkmwzTOg-95" style="edgeStyle=orthogonalEdgeStyle;rounded=0;orthogonalLoop=1;jettySize=auto;html=1;exitX=0.5;exitY=1;exitDx=0;exitDy=0;entryX=0;entryY=0.5;entryDx=0;entryDy=0;" edge="1" parent="1" source="b0Otqnt1lSSFzkmwzTOg-67" target="b0Otqnt1lSSFzkmwzTOg-49">
          <mxGeometry relative="1" as="geometry">
            <Array as="points">
              <mxPoint x="-90" y="690" />
              <mxPoint x="-180" y="690" />
              <mxPoint x="-180" y="660" />
              <mxPoint x="-290" y="660" />
              <mxPoint x="-290" y="380" />
            </Array>
          </mxGeometry>
        </mxCell>
        <mxCell id="b0Otqnt1lSSFzkmwzTOg-67" value="zapni mód přípravy" style="rounded=0;whiteSpace=wrap;html=1;" vertex="1" parent="1">
          <mxGeometry x="-150" y="630" width="120" height="40" as="geometry" />
        </mxCell>
        <mxCell id="b0Otqnt1lSSFzkmwzTOg-96" style="edgeStyle=orthogonalEdgeStyle;rounded=0;orthogonalLoop=1;jettySize=auto;html=1;exitX=0.5;exitY=1;exitDx=0;exitDy=0;entryX=0.5;entryY=0;entryDx=0;entryDy=0;strokeColor=#FF0000;" edge="1" parent="1" source="b0Otqnt1lSSFzkmwzTOg-71" target="b0Otqnt1lSSFzkmwzTOg-66">
          <mxGeometry relative="1" as="geometry" />
        </mxCell>
        <mxCell id="b0Otqnt1lSSFzkmwzTOg-97" style="edgeStyle=orthogonalEdgeStyle;rounded=0;orthogonalLoop=1;jettySize=auto;html=1;exitX=1;exitY=0.5;exitDx=0;exitDy=0;entryX=0.5;entryY=0;entryDx=0;entryDy=0;strokeColor=#00FF00;" edge="1" parent="1" source="b0Otqnt1lSSFzkmwzTOg-71" target="b0Otqnt1lSSFzkmwzTOg-65">
          <mxGeometry relative="1" as="geometry">
            <Array as="points">
              <mxPoint x="-50" y="490" />
            </Array>
          </mxGeometry>
        </mxCell>
        <mxCell id="b0Otqnt1lSSFzkmwzTOg-71" value="mód lovu zapnut" style="rhombus;whiteSpace=wrap;html=1;" vertex="1" parent="1">
          <mxGeometry x="-250" y="450" width="80" height="80" as="geometry" />
        </mxCell>
        <mxCell id="b0Otqnt1lSSFzkmwzTOg-79" style="edgeStyle=orthogonalEdgeStyle;rounded=0;orthogonalLoop=1;jettySize=auto;html=1;exitX=0.5;exitY=1;exitDx=0;exitDy=0;entryX=0.5;entryY=0;entryDx=0;entryDy=0;" edge="1" parent="1" source="b0Otqnt1lSSFzkmwzTOg-72" target="b0Otqnt1lSSFzkmwzTOg-73">
          <mxGeometry relative="1" as="geometry" />
        </mxCell>
        <mxCell id="b0Otqnt1lSSFzkmwzTOg-72" value="vyšli párovací&lt;div&gt;signál&lt;/div&gt;" style="shape=parallelogram;perimeter=parallelogramPerimeter;whiteSpace=wrap;html=1;fixedSize=1;" vertex="1" parent="1">
          <mxGeometry x="-268.5" y="847.5" width="120" height="40" as="geometry" />
        </mxCell>
        <mxCell id="b0Otqnt1lSSFzkmwzTOg-94" style="edgeStyle=orthogonalEdgeStyle;rounded=0;orthogonalLoop=1;jettySize=auto;html=1;exitX=0.5;exitY=1;exitDx=0;exitDy=0;entryX=0;entryY=0.5;entryDx=0;entryDy=0;" edge="1" parent="1" source="b0Otqnt1lSSFzkmwzTOg-73" target="b0Otqnt1lSSFzkmwzTOg-49">
          <mxGeometry relative="1" as="geometry">
            <Array as="points">
              <mxPoint x="-211" y="960" />
              <mxPoint x="-280" y="960" />
              <mxPoint x="-280" y="380" />
            </Array>
          </mxGeometry>
        </mxCell>
        <mxCell id="b0Otqnt1lSSFzkmwzTOg-73" value="přejdi do spánku" style="rounded=0;whiteSpace=wrap;html=1;" vertex="1" parent="1">
          <mxGeometry x="-271.5" y="907.5" width="120" height="40" as="geometry" />
        </mxCell>
        <mxCell id="b0Otqnt1lSSFzkmwzTOg-77" style="edgeStyle=orthogonalEdgeStyle;rounded=0;orthogonalLoop=1;jettySize=auto;html=1;exitX=0.5;exitY=1;exitDx=0;exitDy=0;strokeColor=#FF0000;" edge="1" parent="1" source="b0Otqnt1lSSFzkmwzTOg-74" target="b0Otqnt1lSSFzkmwzTOg-62">
          <mxGeometry relative="1" as="geometry">
            <Array as="points">
              <mxPoint x="-210" y="790" />
              <mxPoint x="-210" y="790" />
            </Array>
          </mxGeometry>
        </mxCell>
        <mxCell id="b0Otqnt1lSSFzkmwzTOg-84" style="edgeStyle=orthogonalEdgeStyle;rounded=0;orthogonalLoop=1;jettySize=auto;html=1;exitX=1;exitY=0.5;exitDx=0;exitDy=0;entryX=0.5;entryY=0;entryDx=0;entryDy=0;fillColor=#00FF00;strokeColor=#00FF00;" edge="1" parent="1" source="b0Otqnt1lSSFzkmwzTOg-74" target="b0Otqnt1lSSFzkmwzTOg-82">
          <mxGeometry relative="1" as="geometry" />
        </mxCell>
        <mxCell id="b0Otqnt1lSSFzkmwzTOg-74" value="připojeno k uživateli" style="rhombus;whiteSpace=wrap;html=1;" vertex="1" parent="1">
          <mxGeometry x="-250" y="682.5" width="80" height="80" as="geometry" />
        </mxCell>
        <mxCell id="b0Otqnt1lSSFzkmwzTOg-87" style="edgeStyle=orthogonalEdgeStyle;rounded=0;orthogonalLoop=1;jettySize=auto;html=1;exitX=0.5;exitY=1;exitDx=0;exitDy=0;entryX=0.5;entryY=0;entryDx=0;entryDy=0;" edge="1" parent="1" source="b0Otqnt1lSSFzkmwzTOg-81" target="b0Otqnt1lSSFzkmwzTOg-86">
          <mxGeometry relative="1" as="geometry" />
        </mxCell>
        <mxCell id="b0Otqnt1lSSFzkmwzTOg-81" value="zašli kientovi&lt;div&gt;zprávu s&lt;/div&gt;&lt;div&gt;info o lovu&lt;/div&gt;" style="shape=parallelogram;perimeter=parallelogramPerimeter;whiteSpace=wrap;html=1;fixedSize=1;" vertex="1" parent="1">
          <mxGeometry x="-110" y="847.5" width="120" height="50" as="geometry" />
        </mxCell>
        <mxCell id="b0Otqnt1lSSFzkmwzTOg-83" style="edgeStyle=orthogonalEdgeStyle;rounded=0;orthogonalLoop=1;jettySize=auto;html=1;exitX=0.5;exitY=1;exitDx=0;exitDy=0;entryX=0.5;entryY=0;entryDx=0;entryDy=0;" edge="1" parent="1" source="b0Otqnt1lSSFzkmwzTOg-82" target="b0Otqnt1lSSFzkmwzTOg-81">
          <mxGeometry relative="1" as="geometry" />
        </mxCell>
        <mxCell id="b0Otqnt1lSSFzkmwzTOg-82" value="zapni BLE" style="shape=parallelogram;perimeter=parallelogramPerimeter;whiteSpace=wrap;html=1;fixedSize=1;" vertex="1" parent="1">
          <mxGeometry x="-110" y="782.5" width="120" height="40" as="geometry" />
        </mxCell>
        <mxCell id="b0Otqnt1lSSFzkmwzTOg-93" style="edgeStyle=orthogonalEdgeStyle;rounded=0;orthogonalLoop=1;jettySize=auto;html=1;exitX=0.5;exitY=1;exitDx=0;exitDy=0;entryX=0;entryY=0.5;entryDx=0;entryDy=0;" edge="1" parent="1" source="b0Otqnt1lSSFzkmwzTOg-85" target="b0Otqnt1lSSFzkmwzTOg-49">
          <mxGeometry relative="1" as="geometry">
            <Array as="points">
              <mxPoint x="-50" y="1038" />
              <mxPoint x="-160" y="1038" />
              <mxPoint x="-160" y="960" />
              <mxPoint x="-280" y="960" />
              <mxPoint x="-280" y="380" />
            </Array>
          </mxGeometry>
        </mxCell>
        <mxCell id="b0Otqnt1lSSFzkmwzTOg-85" value="přejdi do spánku" style="rounded=0;whiteSpace=wrap;html=1;" vertex="1" parent="1">
          <mxGeometry x="-110" y="977.5" width="120" height="40" as="geometry" />
        </mxCell>
        <mxCell id="b0Otqnt1lSSFzkmwzTOg-88" style="edgeStyle=orthogonalEdgeStyle;rounded=0;orthogonalLoop=1;jettySize=auto;html=1;exitX=0.5;exitY=1;exitDx=0;exitDy=0;" edge="1" parent="1" source="b0Otqnt1lSSFzkmwzTOg-86" target="b0Otqnt1lSSFzkmwzTOg-85">
          <mxGeometry relative="1" as="geometry" />
        </mxCell>
        <mxCell id="b0Otqnt1lSSFzkmwzTOg-86" value="odpoj se od klienta" style="shape=parallelogram;perimeter=parallelogramPerimeter;whiteSpace=wrap;html=1;fixedSize=1;" vertex="1" parent="1">
          <mxGeometry x="-110" y="917.5" width="120" height="40" as="geometry" />
        </mxCell>
      </root>
    </mxGraphModel>
  </diagram>
</mxfile>
